/* XPM */
static char *_df4a2a67f7344ffdf60304ed8c5cdd9JkBATpcoFebVO8dc[] = {
/* columns rows colors chars-per-pixel */
"50 50 119 2 ",
"   c #078152",
".  c #0D8456",
"X  c #0F8558",
"o  c #108558",
"O  c #17895D",
"+  c #1A8A5E",
"@  c #1C8B60",
"#  c #228E64",
"$  c #269067",
"%  c #279168",
"&  c #2C936B",
"*  c #32966F",
"=  c #339670",
"-  c #379872",
";  c #3A9A74",
":  c #3F9D78",
">  c #47A07D",
",  c #49A17F",
"<  c #4EA482",
"1  c #52A685",
"2  c #57A888",
"3  c #5CAA8B",
"4  c #61AD8F",
"5  c #63AE90",
"6  c #6BB295",
"7  c #6FB498",
"8  c #74B79B",
"9  c #76B99E",
"0  c #78B99E",
"q  c #7CBBA1",
"w  c #83BEA6",
"e  c #86C0A8",
"r  c #8CC3AC",
"t  c #90C5AF",
"y  c #94C6B1",
"u  c #9BCAB6",
"i  c #9ECCB9",
"p  c #A2CDBA",
"a  c #A7D0BE",
"s  c #A9D1BF",
"d  c #ACD3C4",
"f  c #B2D6C6",
"g  c #B6D8C9",
"h  c #BBDACC",
"j  c #C1DED1",
"k  c #C6E1D4",
"l  c #C9E2D6",
"z  c #CBE3D8",
"x  c #CCE3D8",
"c  c #D0E5DA",
"v  c #D0E6DB",
"b  c #D2E6DC",
"n  c #D3E7DD",
"m  c #D4E7DD",
"M  c #D5E8DE",
"N  c #D7E8DF",
"B  c #D7E9E0",
"V  c #D8E9E0",
"C  c #DAEAE1",
"Z  c #DAEAE2",
"A  c #DBEBE2",
"S  c #DBEBE3",
"D  c #DCEBE3",
"F  c #DCECE3",
"G  c #DDECE4",
"H  c #DEECE4",
"J  c #DEEDE5",
"K  c #E0EDE6",
"L  c #E1EDE6",
"P  c #E0EEE6",
"I  c #E3EFE8",
"U  c #E2EFEA",
"Y  c #E4EFE8",
"T  c #E4EFE9",
"R  c #E2EFEA",
"E  c #E4F0E9",
"W  c #E5F0E9",
"Q  c #E6F0EA",
"!  c #E6F1EA",
"~  c #E7F1EA",
"^  c #E7F1EB",
"/  c #E8F1EB",
"(  c #E9F2EC",
")  c #EBF3ED",
"_  c #EBF3EE",
"`  c #ECF3EE",
"'  c #ECF4EE",
"]  c #EDF4EF",
"[  c #EEF4EF",
"{  c #EEF5F0",
"}  c #EFF5F0",
"|  c #EFF5F1",
" . c #EFF5F0",
".. c #F0F5F1",
"X. c #F0F6F1",
"o. c #F1F6F2",
"O. c #F2F6F2",
"+. c #F2F7F2",
"@. c #F3F7F3",
"#. c #F4F7F4",
"$. c #F2F7F3",
"%. c #F3F8F3",
"&. c #F3F8F4",
"*. c #F4F8F4",
"=. c #F5F8F4",
"-. c #F5F8F5",
";. c #F6F8F5",
":. c #F6F9F5",
">. c #F6F9F6",
",. c #F7F9F6",
"<. c #F7F9F6",
"1. c #F8FAF6",
"2. c #F8FAF7",
"3. c #F8FAF7",
"4. c #F9FAF8",
"5. c #F9FBF8",
"6. c #FAFBF8",
"7. c white",
"8. c white",
/* pixels */
"7.7.7.7.7.7.7.7.7.7.7.7.7.7.7.7.7.7.7.7.7.7.7.7.7.7.7.7.7.7.7.7.7.7.7.7.7.7.7.7.7.7.7.7.7.7.7.7.7.7.",
"7.U d d d d d d d d d d d d d d d d d d d d d d d d d d d d d d d d d d d d d d d d d d d d d d U 7.",
"7.d o o o o o o o o o o o o o o o o o o o o o o o o o o o o o o o o o o o o o o o o o o o o o o d 7.",
"7.d o . . . . . . . . . . . . . . . . . . . . . . . . . . . . . . . . . . . . . . . . . . . . o d 7.",
"7.d o . X X X X X X X X X X X X X X X X X X X X X X X X X X X X X X X X X X X X X X X X X X . o d 7.",
"7.d o . X X X X X X . . . . . . . . . . . . . . . . . . . . . . . . . . . . . . X X X X X X . o d 7.",
"7.d o . X X X X X . X O + + + + + + + + + + + + + + + + + + + + + + + + + + + o . X X X X X . o d 7.",
"7.d o . X X X X X . + i j j j h j j j j j j j j j j j j j j j j j j j j j k d $ . X X X X X . o d 7.",
"7.d o . X X X X X . @ l 5.:.:.:.:.:.:.:.:.:.:.:.:.:.2.E l b @.2.:.:.:.:.:.2.D & . X X X X X . o d 7.",
"7.d o . X X X X X . @ k :.&.&.&.&.:.:.:.&.&.&.&.:.:.d ; @ # 5 D :.@.:.:.:.:.Z & . X X X X X . o d 7.",
"7.d o . X X X X X . @ k :.&.:.:.&.&.:.:.:.:.:.:.:.l % . . . . 7 @.:.:.&.:.:.Z & . X X X X X . o d 7.",
"7.d o . X X X X X . @ k :.:.:.:.&.&.:.:.:.:.&.@.:.r . X X X . & Z :.:.&.:.:.Z & . X X X X X . o d 7.",
"7.d o . X X X X X . @ k :.:.:.:.:.:.:.:.:.:.:.@.:.e . X X X . % B :.&.&.:.:.Z & . X X X X X . o d 7.",
"7.d o . X X X X X . @ k :.:.:.:.:.:.:.:.:.:.:.:.:.h + . X . . 2 ' &.&.&.:.:.Z & . X X X X X . o d 7.",
"7.d o . X X X X X . @ k :.:.:.:.@.:.:.:.:.:.:.:.:.@.w @ . o ; k :.@.:.:.:.:.Z & . X X X X X . o d 7.",
"7.d o . X X X X X . @ k :.:.:.@.:.:.@.| | | | | | | ` h y a F :.:.:.:.:.:.:.Z & . X X X X X . o d 7.",
"7.d o . X X X X X . @ k :.:.@.:.J q 2 1 1 1 1 1 1 1 < 1 2 y @.:.@.:.:.:.:.:.Z % . X X X X X . o d 7.",
"7.d o . X X X X X . @ k :.:.:.@.8 . . . . . . . . . . . . O y :.:.&.:.:.:.:.Z % . X X X X X . o d 7.",
"7.d o . X X X X X . @ k :.@.:.h @ . . . . . . X X X X X X . # f :.:.:.:.:.:.Z % . X X o X X . o d 7.",
"7.d o . X X X X X . @ k :.:./ < . . ; e e w * . X X X X X X . * l :.@.:.:.:.Z % . X o o X X . o d 7.",
"7.d o . X X X X X . @ k :.:.u o . + d 5.5.b % . X X X X X . . . > Z :.@.:.:.Z & . X X X X X . o d 7.",
"7.d o . X X X X X . + k 2.M = . . 4 | :.:.q . . X X X X . % + . . 4 E :.:.:.Z & . X X X X X . o d 7.",
"7.d o . X X X X X . + k 2.q . . # k :.:.B & . X X X X . O d w o . o 1 7 7 7 5 + . X X X X X . o d 7.",
"7.d o . X X X X X . + k :.5   . q #.:.:.e . . X X X X . < _ _ 6 . . . . . . . . X X X X X X . o d 7.",
"7.d o . X X X X X . + k 2.k 3 7 J :.:.J - . X X X X . o a :.:.L 1 . . . . . . . X X X X X X . o d 7.",
"7.d o . X X X X X . + k :.:.@.@.:.@.:.u o . X X X X . > E :.@.:.B q 7 7 7 7 5 + . X X X X X . o d 7.",
"7.d o . X X X X X . + k :.%.:.:.@.:.@.4 . X X X X . o i :.@.:.@.:.:.:.:.:.:.Z % . X X X X X . o d 7.",
"7.d o . X X X X X . + k :.:.:.:.:.:.` , . X . . X . o d :.@.:.:.:.:.:.&.:.:.Z % . X X X X X . o d 7.",
"7.d o . X X X X X . + k :.:.:.:.:.:.E ; . . O # . X . 1 _ :.:.:.&.&.&.&.:.:.Z & . X X X X X . o d 7.",
"7.d o . X X X X X . + k :.:.:.:.:.:.L * . . & 9 o . . O d :.@.:.&.&.&.&.:.:.Z & . X X X X X . o d 7.",
"7.d o . X X X X X . + k :.&.:.:.:.:.Z & . . * l ; . X . 1 ' :.:.:.:.:.:.:.:.Z & . X X X X X . o d 7.",
"7.d o . X X X X X . + k :.&.:.:.:.:.b # . . - E y X . . O f :.@.:.:.:.:.:.:.Z & . X X X X X . o d 7.",
"7.d o . X X X X . . + k :.:.:.:.:.:.l @ . . : _ J - . X . 2 ' :.:.:.:.:.:.:.Z & . X X X X X . o d 7.",
"7.d o . X X X . o ; 6 M @.@.@.@.@.:.h + . . , ` :.t X . . + f :.@.:.:.:.:.:.Z & . X X X X X . o d 7.",
"7.d o . X X . # e r 5 2 2 2 3 3 3 4 , o . . 1 | :.J - . X . 2 ' :.:.:.:.:.:.Z & . X X X X X . o d 7.",
"7.d o . X . + r 4 o . . . . . . . . . . X . 2 @.:.:.t . . . + g :.@.:.:.:.:.Z & . X X X X X . o d 7.",
"7.d o . X . 2 q . . . . . . . . . . . . .   8 :.:.:.J - . X . 2 ' &.:.:.:.:.Z & . X X X X X . o d 7.",
"7.d o . . X y 6 - ; ; - - - - - ; ; ; ; ; 2 x :.:.:.:.r . . . + g :.@.:.:.:.Z & . X X X X X . o d 7.",
"7.d o . . o 7 e w w w c Y U U U Y Y Y Y E | :.@.:.&.:.D - . X . 2 | :.:.:.:.Z % . X X X X X . o d 7.",
"7.d o . X . . . . . @ l :.:.:.:.:.:.:.:.:.:.@.:.:.:.:.:.r . . . + h :.@.:.:.Z % . X X X X X . o d 7.",
"7.d o . X X X X X . @ k :.:.:.:.&.:.:.:.&.&.&.:.:.:.%.:.Z - . X . 3 | :.:.:.Z & . X X X X X . o d 7.",
"7.d o . X X X X X . @ k :.:.:.:.&.&.:.:.:.:.&.&.:.:.:.:.:.t . . . @ h :.@.:.Z & . X X X X X . o d 7.",
"7.d o . X X X X X . @ k :.:.:.:.:.:.:.:.:.:.:.&.:.:.:.%.:.E 3 X . . 3 | :.:.Z & . X X X X X . o d 7.",
"7.d o . X X X X X . @ k :.:.:.:.:.*.*.:.&.:.:.&.:.:.:.:.@.:.E s y y u E :.:.Z & . X X X X X . o d 7.",
"7.d o . X X X X . . @ z :.&.&.&.:.:.:.*.:.:.:.:.&.:.&.&.:.c w 9 q w m :.@.:.Z % . X X X X X . o d 7.",
"7.d o . X X X X . o 0 ' &.&.&.&.:.:.*.*.:.:.:.:.&.&.&.:.l ; . . X 9 _ :.:.' q o . X X X X X . o d 7.",
"7.d o . . . . . O q | 2.:.:.:.:.:.:.:.:.:.:.:.:.:.:.:.j - . . + e @.2.2.| q o . . . . . . . . o d 7.",
"7.d o o o o o . ; p d d d d d d d d d d d d d d d d u * . o X 1 s d d d 8 O X o o o o o o o o o d 7.",
"7.U d d d d d d d d d d d d d d d f d f d d d d d d d d d d d f d d d d d d d d d d d d d d d d U 7.",
"7.7.7.7.7.7.7.7.7.7.7.7.7.7.7.7.7.7.7.7.7.7.7.7.7.7.7.7.7.7.7.7.7.7.7.7.7.7.7.7.7.7.7.7.7.7.7.7.7.7."
};
