/* XPM */
static char * floor_xpm[] = {
"50 50 294 2",
"  	c #898670",
". 	c #807D69",
"+ 	c #7E7C68",
"@ 	c #7E7C69",
"# 	c #85816C",
"$ 	c #86836D",
"% 	c #7D7B67",
"& 	c #43413C",
"* 	c #46443E",
"= 	c #72705F",
"- 	c #817F6B",
"; 	c #7F7D69",
"> 	c #7F7C68",
", 	c #82816C",
"' 	c #656255",
") 	c #4A4741",
"! 	c #797764",
"~ 	c #7E7D69",
"{ 	c #7D7B68",
"] 	c #807E69",
"^ 	c #6A6555",
"/ 	c #666456",
"( 	c #83816C",
"_ 	c #545048",
": 	c #787664",
"< 	c #817F6A",
"[ 	c #7D7C68",
"} 	c #7B7966",
"| 	c #44413D",
"1 	c #58564B",
"2 	c #5F5C4F",
"3 	c #666153",
"4 	c #716A58",
"5 	c #726A58",
"6 	c #676253",
"7 	c #646052",
"8 	c #656152",
"9 	c #5A584C",
"0 	c #59574B",
"a 	c #625E51",
"b 	c #656052",
"c 	c #645F52",
"d 	c #5C594D",
"e 	c #58574B",
"f 	c #5B584D",
"g 	c #5B594D",
"h 	c #59574C",
"i 	c #635F51",
"j 	c #413E3A",
"k 	c #716A59",
"l 	c #746C5A",
"m 	c #716B59",
"n 	c #736C59",
"o 	c #736C5A",
"p 	c #6B6655",
"q 	c #696454",
"r 	c #6A6454",
"s 	c #726B59",
"t 	c #6C6656",
"u 	c #6F6857",
"v 	c #666253",
"w 	c #59584C",
"x 	c #615E50",
"y 	c #6B6555",
"z 	c #423E3B",
"A 	c #7C7A67",
"B 	c #736B59",
"C 	c #726B58",
"D 	c #706958",
"E 	c #6D6757",
"F 	c #5D5B4E",
"G 	c #5D5A4E",
"H 	c #6D6756",
"I 	c #706A58",
"J 	c #5C5A4E",
"K 	c #545047",
"L 	c #6E6757",
"M 	c #605D50",
"N 	c #6B6656",
"O 	c #676255",
"P 	c #726A59",
"Q 	c #89866F",
"R 	c #3E3E3E",
"S 	c #383837",
"T 	c #625E50",
"U 	c #706957",
"V 	c #403D3A",
"W 	c #30302F",
"X 	c #292927",
"Y 	c #2A2A29",
"Z 	c #605C50",
"` 	c #5E5B4E",
" .	c #746D5A",
"..	c #989897",
"+.	c #BCBCBB",
"@.	c #646462",
"#.	c #252525",
"$.	c #686354",
"%.	c #CCCCCC",
"&.	c #FFFFFF",
"*.	c #7B7B79",
"=.	c #24252A",
"-.	c #6A6455",
";.	c #585756",
">.	c #757574",
",.	c #7A7975",
"'.	c #DACF91",
").	c #FCEE9E",
"!.	c #A89D50",
"~.	c #70661D",
"{.	c #73691D",
"].	c #3E3A24",
"^.	c #414141",
"/.	c #78705C",
"(.	c #7F7E69",
"_.	c #A3A3A3",
":.	c #FAFAFA",
"<.	c #FBFAF5",
"[.	c #FCDF3B",
"}.	c #FCD703",
"|.	c #FDD903",
"1.	c #F3D105",
"2.	c #56501F",
"3.	c #676354",
"4.	c #635E51",
"5.	c #686152",
"6.	c #6A6556",
"7.	c #ADAB9E",
"8.	c #FDF9E2",
"9.	c #FBF7DD",
"0.	c #FCE24D",
"a.	c #FCDB1E",
"b.	c #EECC10",
"c.	c #E5C407",
"d.	c #EDCA06",
"e.	c #695F1B",
"f.	c #353327",
"g.	c #645F51",
"h.	c #544E45",
"i.	c #4D4942",
"j.	c #3C3937",
"k.	c #83826C",
"l.	c #5A584D",
"m.	c #6C6756",
"n.	c #756E5B",
"o.	c #E3E3E3",
"p.	c #F0DD73",
"q.	c #FCDB22",
"r.	c #FBDC2C",
"s.	c #FAEFAF",
"t.	c #8B8669",
"u.	c #6E631B",
"v.	c #E2C208",
"w.	c #938314",
"x.	c #3E3A38",
"y.	c #6E6C5C",
"z.	c #514E46",
"A.	c #5F5A4D",
"B.	c #766E5B",
"C.	c #665F51",
"D.	c #4E4A42",
"E.	c #484540",
"F.	c #FCE66C",
"G.	c #FBD70D",
"H.	c #FAF1C0",
"I.	c #FBFCFF",
"J.	c #FBFBFD",
"K.	c #565020",
"L.	c #A49111",
"M.	c #686455",
"N.	c #535047",
"O.	c #45413D",
"P.	c #585248",
"Q.	c #544F46",
"R.	c #423F3B",
"S.	c #4B4942",
"T.	c #FAF1BF",
"U.	c #FCE45E",
"V.	c #7B743F",
"W.	c #5A521F",
"X.	c #57564B",
"Y.	c #696455",
"Z.	c #85836E",
"`.	c #615E51",
" +	c #4C4942",
".+	c #524F46",
"++	c #6E6958",
"@+	c #47423D",
"#+	c #6B6454",
"$+	c #5C5C5A",
"%+	c #FBE770",
"&+	c #FCED95",
"*+	c #7A6E1D",
"=+	c #A28F11",
"-+	c #6F6958",
";+	c #747261",
">+	c #756D5A",
",+	c #706A59",
"'+	c #5D594D",
")+	c #6E6756",
"!+	c #41413F",
"~+	c #60605E",
"{+	c #73726C",
"]+	c #E9E0A9",
"^+	c #FCF2B4",
"/+	c #BBA40E",
"(+	c #605921",
"_+	c #5A5321",
":+	c #302F27",
"<+	c #5A564B",
"[+	c #F4F4F4",
"}+	c #F6F2D9",
"|+	c #DDBF09",
"1+	c #423E24",
"2+	c #6C6655",
"3+	c #403C3A",
"4+	c #87846D",
"5+	c #5E5B4F",
"6+	c #615D50",
"7+	c #6E6857",
"8+	c #807E6A",
"9+	c #545148",
"0+	c #5C5A4D",
"a+	c #686353",
"b+	c #FDF8DF",
"c+	c #E6E2CB",
"d+	c #FADD36",
"e+	c #FCD810",
"f+	c #F2CF05",
"g+	c #CDB10A",
"h+	c #363636",
"i+	c #AE990F",
"j+	c #F5D308",
"k+	c #958E5A",
"l+	c #777778",
"m+	c #7A7552",
"n+	c #4C4723",
"o+	c #544D1E",
"p+	c #1F2026",
"q+	c #ABACAC",
"r+	c #C3C3C3",
"s+	c #E4D478",
"t+	c #FCE040",
"u+	c #837618",
"v+	c #60581F",
"w+	c #C3AA0C",
"x+	c #827416",
"y+	c #FCD80D",
"z+	c #9D9D9E",
"A+	c #F0F0F0",
"B+	c #ECE4B6",
"C+	c #EDCC0F",
"D+	c #535352",
"E+	c #504E45",
"F+	c #514A22",
"G+	c #D3B709",
"H+	c #928218",
"I+	c #4F4821",
"J+	c #7F7E6A",
"K+	c #8C7D1A",
"L+	c #757362",
"M+	c #6F6957",
"N+	c #56554A",
"O+	c #646051",
"P+	c #6B6556",
"Q+	c #5F5D50",
"R+	c #716B58",
"S+	c #746C59",
"T+	c #6D6656",
"U+	c #504C44",
"V+	c #605D4F",
"W+	c #696354",
"X+	c #48433D",
"Y+	c #676353",
"Z+	c #766F5C",
"`+	c #615B4E",
" @	c #4F4B43",
".@	c #666254",
"+@	c #534E45",
"@@	c #423E3A",
"#@	c #656153",
"$@	c #5B574B",
"%@	c #3D3937",
"&@	c #5A574C",
"*@	c #625F51",
"=@	c #5F5C50",
"-@	c #4B4741",
";@	c #403D39",
">@	c #383434",
",@	c #3A3635",
"'@	c #403C39",
")@	c #413D3A",
"!@	c #393534",
"~@	c #3C3836",
"  . + @ # $ % & * = - ; . > , ' ) ! ~ { ] ^ / ( _ : < . ; [ ~ } | * = - ; . > , ' ) ! ~ { ] ^ / ( ) ",
"; 1 2 3 4 5 6 7 8 7 9 1 1 0 a 7 b c b b d e f 9 g 9 h 1 9 i c c b b 7 9 1 1 0 a 7 b c b b d e 9 9 j ",
"; 2 k l m m n n n o p q r ^ s l l s i t u v 9 9 9 w x y y n o o n n o p q r ^ s l l s i t u v 9 g z ",
"A 3 l 4 s s 4 4 4 4 B n n n 4 4 C D d 1 E 4 F G 2 H I n B 4 4 4 4 4 4 B n n n 4 4 C D d 1 H 4 J g z ",
"K s 4 4 k s s s s s 4 4 4 4 4 s 4 s L M t s 4 4 4 s s 4 4 4 s s s s s 4 4 4 4 4 s 4 s L M N n q 9 z ",
"O s 4 P s s s s s s s s s s s s s 4 s n s 4 s s s 4 4 s k s s s s s s s s s s s s s 4 s n s l r w z ",
"Q D s s s s s s s s s s s s s s s s R S S S S S S S S S S S S R s s s s s s s s s s s 4 s 8 T U x V ",
"{ b n 4 4 s s s s s s s s s s s s s W X Y Y Y Y Y Y Y X X X X W s s s s s s s s s s k 4 n Z e ` J j ",
"[ 7  .4 s s s s s s s s s s s s s s X Y ..+.+.+.+.+.+.@.#.X X Y s s s s s s s s s s 4 4 s $.9 e 9 z ",
"; G H s 4 s s s s s s s s s #.#.#.#.#.Y %.&.&.&.&.&.&.*.#.=.=.=.#.#.#.#.R s s s s s s s 4 n -.q x V ",
"] 1 q n 4 s s s s s s s s s X ;.>.>.>.,.'.).).).).).).!.~.{.{.~.].X X X ^.s s s s s s 4 s u l /.7 V ",
"(.e -.n 4 s 4 4 4 4 4 X X X #._.&.:.:.<.[.}.}.}.}.}.}.}.|.}.}.1.2.=.X X ^.s s s s s 4 4 s 3.4.5.6.V ",
"; 1 q n 4 4 s s s s s X Y R R 7.8.9.8.9.0.a.a.a.a.a.a.b.c.d.}.1.e.].f.X R s s s s m s 4 4 s g.h.i.j.",
"k.l.m.B 4 n.U u D D D #.R %.o.p.q.q.q.r.s.9.9.9.9.9.9.t.].u.1.}.c.v.w.X Y ^.^.s s s 4 4 s s m 7 K x.",
"y.z.A.B.4 C.D.E.a M i #.^.o.&.F.}.}.}.G.H.I.J.J.J.J.&.*.#.K.1.}.|.|.L.X X X #.s s 4 s P H 4 D s M.V ",
"N.O.& P.Q.R.S.g.s 4 4 #.^.o.&.F.}.}.}.G.T.I.T.U.U.U.U.V.=.W.1.}.}.|.L.X X X X s 4 C P v X.Y.n n 7 V ",
"Z.`.m. +.+++@+#+$+#.#.#.R o.&.%+}.}.}.G.T.I.&+}.}.}.}.*+=.W.1.}.}.|.=+=.=.X X s 4 s -+h M D 4 n b V ",
";+8 >+,+k l '+)+$+#.!+~+{+]+^+0.}.}.}.G.T.I.&+}.}.}.|.*+=.W.1.}.}.|./+(+_+:+X s 4 s 4 H D B s l 7 V ",
"<+4 4 s C s v p $+#.,.[+}+q.}.}.}.}.}.G.T.I.&+}.}.}.|.*+=.W.1.}.}.}.}.}.|+1+X Y X 4 s B s 4 2+D 3 3+",
"4+s 4 4 4 s U Z $+#.*.&.9.q.}.}.}.}.}.G.H.I.&+}.}.}.|.*+=.W.1.}.}.}.}.|.v.1+X X #.s 4 4 C k d 5+x V ",
"; $.n 4 s s 4 m.$+#.*.I.9.q.}.}.}.}.}.G.T.I.&+}.}.}.|.*+=.W.1.}.}.}.}.|.v.1+X X #.s s 4 s 4 ` h 9 z ",
"[ 6+n s 4 4 s B $+#.*.I.9.q.}.}.}.}.}.G.T.I.&+}.}.}.|.*+=.W.1.}.}.}.}.|.v.1+X X #.s s 4 4 s 2+g g z ",
"; h b 4 s 4 4 4 $+#.*.J.9.q.}.}.}.}.}.G.T.I.&+}.}.}.|.*+=.W.1.}.}.}.}.|.v.1+X X #.s s s 4 s 7+g g z ",
"8+9 w )+s 4 s s $+#.*.I.9.q.}.}.}.}.}.G.T.I.&+}.}.}.|.*+=.W.1.}.}.}.}.|.v.1+X X #.s s s 4 s 7+g g z ",
"9+g 0+7+s 4 s s $+#.,.I.9.q.}.}.}.}.}.G.T.I.&+}.}.}.|.*+=.W.1.}.}.}.}.|.v.1+X X #.s s 4 C k x 9 g z ",
": h q B 4 4 s s $+#.*.I.9.q.}.}.}.}.}.G.T.I.&+}.}.}.|.*+=.W.1.}.}.}.}.|.v.1+X X #.s 4 4 4 4 G 9 g z ",
"- 1 q n 4 s s s $+#.*.I.9.q.}.}.}.}.}.G.T.I.&+}.}.}.|.*+=.W.1.}.}.}.}.|.v.1+X X #.4 s n s 4 G 9 g z ",
"~ 2 D s 4 s s s $+#.*.J.9.q.}.}.}.}.}.G.T.I.&+}.}.}.|.*+=.W.1.}.}.}.}.|.v.1+X X #.s I a Y.n a+9 g z ",
"A 3 l 4 s s s s $+#.*.I.9.q.}.}.}.}.}.G.T.I.&+}.}.}.|.*+=.W.1.}.}.}.}.|.v.1+X X #.s D d e t 4 J g z ",
"K s 4 4 4 s s s $+#.*.I.9.q.}.}.}.}.}.G.T.I.&+}.}.}.|.*+=.W.1.}.}.}.}.|.v.1+X X #.4 s L M t o q 9 z ",
"O s 4 P s s s s $+#.*.&.b+q.}.}.}.}.}.G.T.I.&+}.}.}.|.*+=.W.1.}.}.}.}.|.c.1+X X #.s 4 s n s l r w z ",
"Q D s s s s s s $+#.{+o.c+d+a.e+}.}.}.G.T.I.&+}.}.}.|.*+=.W.1.}.}.}.f+c.g+].X S R s s 4 s 8 T U x V ",
"{ b n 4 4 s s s $+#.h+^.;.c+b+U.}.}.}.G.T.I.&+}.}.}.|.*+=.W.1.}.}.|.i+1+1+Y X s s s k 4 n Z e ` J j ",
"[ 7  .4 s s s s $+#.X #.^.o.&.F.}.}.}.G.T.I.&+}.}.}.|.*+=.W.1.}.}.|.=+=.X X X s s s 4 4 s $.9 e 9 z ",
"; G H s 4 s s s s s s #.^.o.&.F.}.}.}.j+k+l+m+*+*+*+*+n+=.W.1.}.}.|.L.X X X X s s s s s 4 n -.q x V ",
"] 1 q n 4 s s s s s s #.^.o.&.F.}.}.}.f+o+p+#.=.=.=.=.=.=.K.1.}.|.|.L.X X #.#.s s s s 4 s u l /.7 V ",
"(.e -.n 4 s s s s s s #.R q+r+s+t+d+}.1.u+W.v+v+v+v+v+v+W.u+1.}.g+w+x+X W s s s s s 4 4 s 3.4.5.6.V ",
"(.e -.n 4 s s s s s s #.X Y Y _.<.T.y+}.}.1.1.1.1.1.1.1.1.}.|.1.W.Y Y X ^.s s s s m s 4 4 s g.h.i.j.",
"] 1 q n 4 s s s s s s S S X X z+A+B+C+d.}.}.}.}.}.}.}.1.d.d.d.c.o+=.X X ^.s s s s s 4 4 s s m 7 K x.",
"; l.p B 4 s s s s s s s s s X ^.D+E+F+o+G+|.}.}.}.}.}.H+n+F+F+I+f.X X X ^.s s s s 4 s P H 4 D s M.V ",
"[ c o 4 s s s s s s s s s s #.#.#.#.=.Y g+|.|.|.|.|.|.*+=.=.=.=.#.#.#.#.R s s s 4 4 k v X.Y.n n 7 V ",
"J+i o 4 s s s 4 s 4 4 4 4 s 4 s s s Y Y {.K+K+K+K+K+K+F+X X X Y k 4 4 4 s k s 4 s B D h M D 4 n b V ",
"L+b n 4 s s 4 s 4 s n n s 4 s s s s Y #.#.=.#.=.=.=.#.#.#.#.#.Y -+s s s 4 s 4 s 4 M+-+L D B s l 7 V ",
"<+4 s 4 s s s 4 B u p p u s 4 4 4 4 s s s 4 n 7 N+i s 4 4 4 s O+y >+H M+s 4 4 n q 9 G H s 4 2+D 3 3+",
"4+s 4 s k s 4 s 7+` w X.8 n 4 s s 4 4 s s 4 s P+6 B s 4 s 4 s 4 Q+8 b M+s 4 4 n $.X.h 2 B 4 g 5+x V ",
"; $.n 4 s R+4 S+6 1 g 2 7+s s 4 4 s s 4 4 4 n Y.`.3 s 4 4 4 s T+U+$.-+B 4 4 s B 7+P+F V+B I ` h 9 z ",
"[ 6+n B 4 4 I s Y.0+y 4 l D y F G y C s n n W+9 1 F 4 n B 4 s )+X+n s 4 s n D y G q M+7+s l H g g z ",
"; h O+2+B  .s <+n n  .4 r 2 9 9 w J B u q Y+9 9 g 9 x ^ ^ B Z+`+ @l n l D r 2 9 9 h 7+B.7+q a+9 g z ",
"8+l.9 g 7 .@+@@@#@b #@`.h g g g g d #@Z h 9 g g g g l.h f v $@%@&@v 7 #@`.h g g g g *@3 =@h 9 g g z ",
"-@j z @@;@V >@,@V '@'@V z @@@@@@@@j '@)@z z @@@@@@@@@@z j )@,@!@)@V ;@'@V z @@@@@@@@V '@)@z z @@z ~@"};
