/* XPM */
static char *a8aad5083c5a4044b63f54310c52617dF2pHq9AQt0atciZN[] = {
/* columns rows colors chars-per-pixel */
"50 50 181 2 ",
"   c #898670",
".  c #807D69",
"X  c #7E7C68",
"o  c #7E7C69",
"O  c #85816C",
"+  c #86836D",
"@  c #7D7B67",
"#  c #43413C",
"$  c #46443E",
"%  c #72705F",
"&  c #817F6B",
"*  c #7F7D69",
"=  c #7F7C68",
"-  c #82816C",
";  c #656255",
":  c #4A4741",
">  c #797764",
",  c #7E7D69",
"<  c #7D7B68",
"1  c #807E69",
"2  c #6A6555",
"3  c #666456",
"4  c #83816C",
"5  c #545048",
"6  c #787664",
"7  c #817F6A",
"8  c #7D7C68",
"9  c #7B7966",
"0  c #44413D",
"q  c #58564B",
"w  c #5F5C4F",
"e  c #666153",
"r  c #716A58",
"t  c #726A58",
"y  c #676253",
"u  c #646052",
"i  c #656152",
"p  c #5A584C",
"a  c #59574B",
"s  c #625E51",
"d  c #656052",
"f  c #645F52",
"g  c #5C594D",
"h  c #58574B",
"j  c #5B584D",
"k  c #5B594D",
"l  c #59574C",
"z  c #635F51",
"x  c #413E3A",
"c  c #716A59",
"v  c #746C5A",
"b  c #716B59",
"n  c #736C59",
"m  c #736C5A",
"M  c #6B6655",
"N  c #696454",
"B  c #6A6454",
"V  c #726B59",
"C  c #6C6656",
"Z  c #6F6857",
"A  c #666253",
"S  c #59584C",
"D  c #615E50",
"F  c #6B6555",
"G  c #423E3B",
"H  c #7C7A67",
"J  c #736B59",
"K  c #726B58",
"L  c #706958",
"P  c #6D6757",
"I  c #5D5B4E",
"U  c #5D5A4E",
"Y  c #6D6756",
"T  c #706A58",
"R  c #5C5A4E",
"E  c #545047",
"W  c #6E6757",
"Q  c #605D50",
"!  c #6B6656",
"~  c #676255",
"^  c #726A59",
"/  c #89866F",
"(  c #625E50",
")  c #706957",
"_  c #403D3A",
"`  c #605C50",
"'  c #5E5B4E",
"]  c #746D5A",
"[  c #686354",
"{  c #6A6455",
"}  c #78705C",
"|  c #7F7E69",
" . c #676354",
".. c #635E51",
"X. c #686152",
"o. c #6A6556",
"O. c #645F51",
"+. c #544E45",
"@. c #4D4942",
"#. c #3C3937",
"$. c #83826C",
"%. c #5A584D",
"&. c #6C6756",
"*. c #756E5B",
"=. c #3E3A38",
"-. c #6E6C5C",
";. c #514E46",
":. c #5F5A4D",
">. c #766E5B",
",. c #665F51",
"<. c #4E4A42",
"1. c #484540",
"2. c #686455",
"3. c #535047",
"4. c #45413D",
"5. c #585248",
"6. c #544F46",
"7. c #423F3B",
"8. c #4B4942",
"9. c #57564B",
"0. c #696455",
"q. c #85836E",
"w. c #615E51",
"e. c #4C4942",
"r. c #524F46",
"t. c #6E6958",
"y. c #47423D",
"u. c #6B6454",
"i. c #6F6958",
"p. c #747261",
"a. c #756D5A",
"s. c #706A59",
"d. c #5D594D",
"f. c #6E6756",
"g. c #5A564B",
"h. c #6C6655",
"j. c #403C3A",
"k. c #87846D",
"l. c #5E5B4F",
"z. c #615D50",
"x. c #6E6857",
"c. c #807E6A",
"v. c #545148",
"b. c #5C5A4D",
"n. c #686353",
"m. c #7F7E6A",
"M. c #757362",
"N. c #6F6957",
"B. c #56554A",
"V. c #646051",
"C. c #6B6556",
"Z. c #5F5D50",
"A. c #716B58",
"S. c #746C59",
"D. c #6D6656",
"F. c #504C44",
"G. c #605D4F",
"H. c #696354",
"J. c #48433D",
"K. c #676353",
"L. c #766F5C",
"P. c #615B4E",
"I. c #4F4B43",
"U. c #666254",
"Y. c #534E45",
"T. c #423E3A",
"R. c #656153",
"E. c #5B574B",
"W. c #3D3937",
"Q. c #5A574C",
"!. c #625F51",
"~. c #5F5C50",
"^. c #4B4741",
"/. c #403D39",
"(. c #383434",
"). c #3A3635",
"_. c #403C39",
"`. c #413D3A",
"'. c #393534",
"]. c #3C3836",
"[. c white",
/* pixels */
"  . X o O + @ # $ % & * . = - ; : > , < 1 2 3 4 5 6 7 . * 8 , 9 0 $ % & * . = - ; : > , < 1 2 3 4 : ",
"* q w e r t y u i u p q q a s u d f d d g h j p k p l q p z f f d d u p q q a s u d f d d g h p p x ",
"* w c v b b n n n m M N B 2 V v v V z C Z A p p p S D F F n m m n n m M N B 2 V v v V z C Z A p k G ",
"H e v r V V r r r r J n n n r r K L g q P r I U w Y T n J r r r r r r J n n n r r K L g q Y r R k G ",
"E V r r c V V V V V r r r r r V r V W Q C V r r r V V r r r V V V V V r r r r r V r V W Q ! n N p G ",
"~ V r ^ V V V V V V V V V V V V V r V n V r V V V r r V c V V V V V V V V V V V V V r V n V v B S G ",
"/ L V V V V V V V V V V V V V V V V r r r V r r r c V V V V V V V V V V V V V V V V V r V i ( ) D _ ",
"< d n r r V V V V V V V V V V V V V V c c V V V V V V V V V V V V V V V V V V V V V c r n ` h ' R x ",
"8 u ] r V V V V V V V V V V V V V V V V V V V V V V V V V V V V V V V V V V V V V V r r V [ p h p G ",
"* U Y V r V V V V V V V V V V V V V V V V V V V V V V V V V V V V V V V V V V V V V V V r n { N D _ ",
"1 q N n r V V V V V V V V V V V V V V V V V V V V V V V V V V V V V V V V V V V V V V r V Z v } u _ ",
"| h { n r V r r r r r r V V V V V V V V V V V V V V V V V V V V V V V V V V V V V V r r V  ...X.o._ ",
"* q N n r r V V V V V V r V V V V V V V V V V V V V V V V V V V V V V V V V V V V b V r r V O.+.@.#.",
"$.%.&.J r *.) Z L L L r V r V V V V V V V V V V V V V V V V V V V V V V V V V V V V r r V V b u E =.",
"-.;.:.>.r ,.<.1.s Q z r V r V V V V V V V V V V V V V V V V V V V V V V V V V V V r V ^ Y r L V 2._ ",
"3.4.# 5.6.7.8.O.V r r c V V V V V V V V V V V V V V V V V V V V V V V V V V V V r K ^ A 9.0.n n u _ ",
"q.w.&.e.r.t.y.u.m r V V V V V V V V V V V V V V V V V V V V V V V V V V V V V V r V i.l Q L r n d _ ",
"p.i a.s.c v d.f.J r r V V V V V V V V V V V V V V V V V V V V V V V V V V V V V r V r Y L J V v u _ ",
"g.r r V K V A M V r c V V V V V V V V V V V V V V V V V V V V V V V V V V V V V V r V J V r h.L e j.",
"k.V r r r V ) ` b K r V V V V V V V V V V V V V V V V V V V V V V V V V V V V V V V r r K c g l.D _ ",
"* [ n r V V r &.r V r V V V V V V V V V V V V V V V V V V V V V V V V V V V V V V V V r V r ' l p G ",
"8 z.n V r r V J K c V V V V V V V V V V V V V V V V V V V V V V V V V V V V V V V V V r r V h.k k G ",
"* l d r V r r r V V V V V V V V V V V V V V V V V V V V V V V V V V V V V V V V V V V V r V x.k k G ",
"c.p S f.V r V V V V V V V V V V V V V V V V V V V V V V V V V V V V V V V V V V V V V V r V x.k k G ",
"v.k b.x.V r V V V V V V V V V V V V V V V V V V V V V V V V V V V V V V V V V V V V V r K c D p k G ",
"6 l N J r r V V V V V V V V V V V V V V V V V V V V V V V V V V V V V V V V V V V V r r r r U p k G ",
"& q N n r V V V V V V V V V V V V V V V V V V V V V V V V V V V V V V V V V V V V r V n V r U p k G ",
", w L V r V V V V V V V V V V V V V V V V V V V V V V V V V V V V V V V V V V V r V T s 0.n n.p k G ",
"H e v r V V V V V V V V V V V V V V V V V V V V V V V V V V V V V V V V V V V V r V L g h C r R k G ",
"E V r r r V V V V V V V V V V V V V V V V V V V V V V V V V V V V V V V V V V V V r V W Q C m N p G ",
"~ V r ^ V V V V V V V V V V V V V V V V V V V V V V V V V V V V V V V V V V V V V V r V n V v B S G ",
"/ L V V V V V V V V V V V V V V V V V V V V V V V V V V V V V V V V V V V V V V V V V r V i ( ) D _ ",
"< d n r r V V V V V V V V V V V V V V V V V V V V V V V V V V V V V V V V V V V V V c r n ` h ' R x ",
"8 u ] r V V V V V V V V V V V V V V V V V V V V V V V V V V V V V V V V V V V V V V r r V [ p h p G ",
"* U Y V r V V V V V V V V V V V V V V V V V V V V V V V V V V V V V V V V V V V V V V V r n { N D _ ",
"1 q N n r V V V V V V V V V V V V V V V V V V V V V V V V V V V V V V V V V V V V V V r V Z v } u _ ",
"| h { n r V V V V V V V V V V V V V V V V V V V V V V V V V V V V V V V V V V V V V r r V  ...X.o._ ",
"| h { n r V V V V V V V V V V V V V V V V V V V V V V V V V V V V V V V V V V V V b V r r V O.+.@.#.",
"1 q N n r V V V V V V V V V V V V V V V V V V V V V V V V V V V V V V V V V V V V V r r V V b u E =.",
"* %.M J r V V V V V V V V V V V V V V V V V V V r r V V V V V r c V V V V V V V V r V ^ Y r L V 2._ ",
"8 f m r V V V V V V V V V V V V V V V V V b V r r r r V V V V r r V V V V V V V r r c A 9.0.n n u _ ",
"m.z m r V V V r V r r r r V r V V V V V V V r V V V V t V V r V c r r r V c V r V J L l Q L r n d _ ",
"M.d n r V V r V r V n n V r V V V V V V V r K c s s V r r r V u i.V V V r V r V r N.i.W L J V v u _ ",
"g.r V r V V V r J Z M M Z V r r r r V V V r n u B.z V r r r V V.F a.Y N.V r r n N p U Y V r h.L e j.",
"k.V r V c V r V x.' S 9.i n r V V r r V V r V C.y J V r V r V r Z.i d N.V r r n [ 9.l w J r k l.D _ ",
"* [ n r V A.r S.y q k w x.V V r r V V r r r n 0.w.e V r r r V D.F.[ i.J r r V J x.C.I G.J T ' l p G ",
"8 z.n J r r T V 0.b.F r v L F I U F K V n n H.p q I r n J r V f.J.n V r V n L F U N N.x.V v Y k k G ",
"* l V.h.J ] V g.n n ] r B w p p S R J Z N K.p p k p D 2 2 J L.P.I.v n v L B w p p l x.>.x.N n.p k G ",
"c.%.p k u U.Y.T.R.d R.w.l k k k k g R.` l p k k k k %.l j A E.W.Q.A u R.w.l k k k k !.e ~.l p k k G ",
"^.x G T./._ (.)._ _._._ G T.T.T.T.x _.`.G G T.T.T.T.T.G x `.).'.`._ /._._ G T.T.T.T._ _.`.G G T.G ]."
};
