/* XPM */
static char *b2ae1e7fdc1041e3db760c29cc5d65692tbmm6MFGg1ZHCcZ[] = {
/* columns rows colors chars-per-pixel */
"38 50 234 2 ",
"   c #0C0204",
".  c #12070B",
"X  c #140A0D",
"o  c #190E0E",
"O  c #120706",
"+  c #1C100E",
"@  c #170C10",
"#  c #190E12",
"$  c #1C1214",
"%  c #1F1418",
"&  c #22130E",
"*  c #2A140A",
"=  c #231513",
"-  c #241916",
";  c #2B1913",
":  c #251A1A",
">  c #2A1D1C",
",  c #221619",
"<  c #341C13",
"1  c #371F17",
"2  c #32190E",
"3  c #2D211D",
"4  c #3C2215",
"5  c #34231B",
"6  c #3C241A",
"7  c #3A2618",
"8  c #2C1E22",
"9  c #2F2122",
"0  c #3C2C25",
"q  c #352625",
"w  c #3F3029",
"e  c #452817",
"r  c #583416",
"t  c #522D10",
"y  c #633E19",
"u  c #673A14",
"i  c #713E14",
"p  c #422B23",
"a  c #43332B",
"s  c #4A3428",
"d  c #52382A",
"f  c #4B3A32",
"g  c #453A34",
"h  c #533B35",
"j  c #6D431B",
"k  c #68401A",
"l  c #754217",
"z  c #7C4C1D",
"x  c #75491D",
"c  c #594338",
"v  c #5C412B",
"b  c #684625",
"n  c #7B4E21",
"m  c #7B5328",
"M  c #654A3A",
"N  c #64493B",
"B  c #6E5336",
"V  c #594944",
"C  c #5E5052",
"Z  c #634C43",
"A  c #6A5144",
"S  c #69564B",
"D  c #735A4C",
"F  c #775A4B",
"G  c #785E52",
"H  c #655657",
"J  c #7C6354",
"K  c #776668",
"L  c #87521C",
"P  c #814D1C",
"I  c #845323",
"U  c #8C5622",
"Y  c #8B5925",
"T  c #8C5C2C",
"R  c #87582A",
"E  c #925E2C",
"W  c #945D25",
"Q  c #825D38",
"!  c #94622C",
"~  c #9C662D",
"^  c #9B692F",
"/  c #9D6120",
"(  c #8C6439",
")  c #956432",
"_  c #9A6633",
"`  c #9C6B33",
"'  c #97693A",
"]  c #976A35",
"[  c #A36D34",
"{  c #A36E3B",
"}  c #AE7936",
"|  c #A5743B",
" . c #AA753A",
".. c #AE793C",
"X. c #A77435",
"o. c #B27D3C",
"O. c #B37D36",
"+. c #A36E2F",
"@. c #856A5C",
"#. c #936F4C",
"$. c #AD7D42",
"%. c #A57847",
"&. c #B07F42",
"*. c #A87A56",
"=. c #866E62",
"-. c #8C7363",
";. c #9A7D6E",
":. c #947766",
">. c #997E73",
",. c #8C757D",
"<. c #B5813D",
"1. c #BC853D",
"2. c #BE883C",
"3. c #C38D3E",
"4. c #B48243",
"5. c #BE8944",
"6. c #BC8B4A",
"7. c #B78648",
"8. c #AA8458",
"9. c #BB8C52",
"0. c #B88B5C",
"q. c #B88C50",
"w. c #9C8374",
"e. c #B8936A",
"r. c #A3857B",
"t. c #A6897A",
"y. c #BB9775",
"u. c #AE8B6F",
"i. c #C38D43",
"p. c #C18E4B",
"a. c #C08740",
"s. c #C59146",
"d. c #CB9444",
"f. c #C5914C",
"g. c #CA954A",
"h. c #CE9A4C",
"j. c #CE9947",
"k. c #D19C4B",
"l. c #C49354",
"z. c #CC9A54",
"x. c #C49559",
"c. c #CA9B5C",
"v. c #C99756",
"b. c #D49F58",
"n. c #C38F53",
"m. c #D4A14D",
"M. c #D2A25C",
"N. c #DAA558",
"B. c #E1AB5F",
"V. c #CC9D62",
"C. c #CC9F69",
"Z. c #C29C79",
"A. c #D09F61",
"S. c #CDA269",
"D. c #D3A362",
"F. c #D9A968",
"G. c #C9A57B",
"H. c #E7B366",
"J. c #E1AF66",
"K. c #98858D",
"L. c #AB8D84",
"P. c #A88E87",
"I. c #AB9385",
"U. c #AE938B",
"Y. c #B2948D",
"T. c #B49A8D",
"R. c #BC9C85",
"E. c #AB9394",
"W. c #B59B94",
"Q. c #B99B95",
"!. c #B29B9C",
"~. c #B99E9B",
"^. c #B39692",
"/. c #BAA28D",
"(. c #BBA394",
"). c #BDA39C",
"_. c #BFA996",
"`. c #B39DA2",
"'. c #B59DAA",
"]. c #AE9DA7",
"[. c #B6A0A2",
"{. c #BBA4A8",
"}. c #BEA8B4",
"|. c #C29C8A",
" X c #C4A484",
".X c #CCAD8A",
"XX c #C7A786",
"oX c #D1AE84",
"OX c #D6B28A",
"+X c #CAAC93",
"@X c #C3AB9A",
"#X c #C5A698",
"$X c #CCB199",
"%X c #D2B494",
"&X c #D3B59B",
"*X c #D5BB9D",
"=X c #D9B994",
"-X c #D1B093",
";X c #C2A6A2",
":X c #C5ABA4",
">X c #C9ABA5",
",X c #C4A9A9",
"<X c #CAAEAA",
"1X c #CCB4A4",
"2X c #CCB3AB",
"3X c #CAB4A4",
"4X c #D9BEA4",
"5X c #D3BBAC",
"6X c #D4B8A8",
"7X c #C4ADB6",
"8X c #C5ADBB",
"9X c #C6B1BD",
"0X c #C9B1BE",
"qX c #C7B4B3",
"wX c #D2B7B1",
"eX c #D5BCB2",
"rX c #D8BCB5",
"tX c #DCC3AD",
"yX c #D8C0AB",
"uX c #DCC3B3",
"iX c #DCC4B9",
"pX c #DECABC",
"aX c #DCC5B2",
"sX c #E1CAB3",
"dX c #E3CCBB",
"fX c #E0C5B2",
"gX c #E3CAB7",
"hX c #CBB4C2",
"jX c #CCB7C3",
"kX c #D2BBC9",
"lX c #D4BCC0",
"zX c #D4C2CE",
"xX c #DAC6D4",
"cX c #E2CCC1",
/* pixels */
"}.7X8X8X8X8XhX{.'.kX9XhXhX0X0X9X8X8X7X7X}.{.`.`.`.`.!.!.!.!.!.!.!.E.E.E.Y.y.",
"7X8X8X0X0X8XkX,.q K.zX9XhXhXhXhX9X8X8X7X7X{.!.`.`.!.{.,X).XXG.G.OXOX#X(.y.4.",
"8X0X0X0XhX0XkXK.0 1 K.zXhXhXhXhX0X0X8X8X7X{.`.[.[.}.P.H 8.D.D.i.i.F.C.9.$.[ ",
"8X0XhXhXhXhXkX'.0 s > ].zXhXjXjXhX0X0X8X8X{.[.[.qXK 5 > b 1.p.M.x.9. .[ W E ",
"8X0X0XhXjXjXjXkXh s p q }.zXhXjXjXhX0X0X7X{.[.qXK o a 9 t / O.v.9.! Y L P P ",
"0XhXhXjXkXkXjXxXK 4 c ; 8 {.xXkXjXhX0X9X7X{.qXK O a f = b [ x.| ! z i l z l ",
"G..X-X-X-X&X6XcXE.6 M a o 9 K {.lXrX0XjXjXE.C o w c q 4 v.x.| Y z i l l z E ",
"p.g.M.F.F.F.D.F.S.< 5 w , X . w V V V C C :   q a f > m F.| x z l i z E $. .",
" .4.5.v.N.J.J.F.F.d # : $ # $ % $ # $ @   . $ > a 0 - 7.4.x i j j z R  .[ ~ ",
"n.v.6.i.g.N.B.J.H.Q $ - - X # # $ % # X X # X X > 9 7 7.i r y u j I _ [ ~ ~ ",
"l.V.F.z.f.g.b.N.H.6.= - : X # # 8 , X X # @ X X # # B T t t r k n ) ! [ W W ",
"c.x.V.D.A.z.g.h.N.%.= - : # X > f : X @ $ X X X X . b r e r r j n ! L W L U ",
"V.c.x.x.c.D.M.g.N.B o > > # o V K : X $ $ X X X . X e e e e r y n U U U U U ",
"V.V.c.x.9.9.x.f.p.s + - - $ a w.T.5 $ : $ @ X @ @ X ; < 4 e r k m I I U E L ",
"c.V.S.V.x.7.$.6.| ; & - = = D $X$XV $ $ $ # @ X # $ - < 2 4 t k x x n z I l ",
"V.S.S.S.c.9.q.7.( ; + & = 7 -.+X+XS o o $ # @ X @ # $ e < 4 4 r y y j x z u ",
"v.V.F.c.x.x.9.%.( 5 + & O M Z.+X/.c o $ # @ @ @ $ $ 0 M 7 * * 4 e e r j j u ",
"1.5.z.V.S.c.9.$.m s 5 f c F |.@XY.a   X X o # @ X w J w.J c 6 & + & & 4 r t ",
"i.z.i.l.D.c.V.q.' b v :.+XR.R.>XY.Z C g : $ + $ S I.T.T.t.w.D > X O O O ; 4 ",
"a.5.f.z.D.D.c.6. .m b 8.XX+X#X#X>X2XeX=.0 5 f w.3X3X:X(.I.t.=.q o X X $ # X ",
"1.5.p.z.z.M.c.v.f.! r Q G.Z.|.#X#XeX1X_.-.-.@XiXuX5X3X@X/.I.Z - + X X , $ @ ",
"i.5.s.1.d.g.F.D.v.4.z r 8.0.%.*.u.1X1X#X$XdXdXpXiXuX5X3X@XT.Z - + X X # X X ",
"p.f.g.f.i.j.g.M.M.z.X.r y 7.{ _ y. Xy.$XsXyXaXdXpXiXeX5X1X_.@.3 + X X X X X ",
"v.l.5.g.h.h.d.z.M.g.5.R e m ' %.*.#.XX4X*XtXdXdXcXpXiXeX5X:XL.f $ X X X . X ",
"f.v.g.5.1.g.h.N.N.h.g.X.y m ( ) R e.=X.X*XaXdXdXcXcXpXiXeX3XW.D - X X . . @ ",
"p.i.g.z.p.i.s.d.d.m.k.1.I #.8.8.e.oXoX.X*XsXdXdXdXdXpXiXeX1X@Xw.a $ X . X # ",
"6.5.<.f.M.b.z.i.3.j.k.j.^ *.y.G.G.G.oX=X%X*XaXdXdXpXiXuX5X1X@XT.=.3 X . $ , ",
"p.i.f.f.p.i.h.j.k.d.d.d.O.8.G.XXG.G.OX=X%X%X4XaXdXpXaXuX6X@X/./.w.0 X . $ , ",
"o.f.f.v.f.1.s.3.3.d.j.j.3.$..X*X%XXXoXOX*X%XyXtXaXaXyX5X1X$X@X(.I.V O X > $ ",
"} 5.<.p.v.z.g.s.i.2.k.m.k.4.XXtXfX4X&X-X%X-X*XtXtXyX5X6X1X3X$X@X(.>.- X > o ",
"6.o.<.o.5.l.f.h.g.2.3.d.k.<.Z.tXsXsXtX*X%X.X-XtXaXyX5X5X2X3X$X@X(.T.V o 3 , ",
"p.6.5.6.<.o.1.i.s.g.g.d.m.s.e.4XtXaXtXfX4X.X%X%X6XyX5XeXeX5X2X3X_.W.G o - # ",
"..o.5.p.6.6.p.5.1.i.d.k.k.j.7.%XtXfXdXfX4X-XXX+XuXpXiXuXeX5X1X:X_.W.w.0 X X ",
"[ ..o.4.5.f.6.5.p.5.i.i.g.k.&.e.%X4XtXaX&X XXX4XuXiXiXiXeX2X3X@X(.W.I.S X X ",
"X. .$. ...7.5.f.f.g.s.i.1.g.1.R Z.XX6X4X6X XXX4X5XeXiXrXwX2X>X).(.Y.I.@.= X ",
"$.$.7.4...o.} <.4.f.s.s.g.s.s.Y ) 0. X+X+XR.$X6XeXiXiXwX2X2X:X).W.U.r.J - # ",
"$.&...7.4.&.4...o.7.7.1.i.g.g.<.n ( 8.y.R.1XrXrXrXrXwX2X2X>X).).Y.I.L.G 0 q ",
"| $.$.$.$.4.6.4.o.o.o.o.1.5.1.2.! Q *.e.$XeXrXiXrX2X2X:X;X;X).Q.Y.L.w.J 0 f ",
"` ! | | ..$.4.6.4.} 4.5.2.5.1.3.X.%.XX6XrXeXeXwXwXwX2X).).).Q.Y.L.t.>.A p A ",
"` Y ` { ` | ~ o. ...} <.1.i.i.i.4.y.6XwXwXrXrXwXwX2X:X).Q.^.U.L.r.;.@.M G =.",
"` ^ ` { [ [ [  . . .+.o.} o.} 9.XX2X>X2XeXeXwXwX2X:X).Q.Y.L.r.r.;.-.G A G G ",
"` { ` ` | | [ [ ..o.o.o.o.o.0.#X2X<X<X2X2X2X2X<X:X).Q.T.L.r.r.;.:.@.A M F J ",
"` _ ` ^ ` | X.[  . .o.} &.y.@X#X>X2X2X<X:X>X>X:X).Q.Y.L.t.r.;.;.:.G N A F F ",
"_ E _ ) ^ ^ ^ [ +.[ +.%.R.;X#X>X>X2X2X>X>X:X).).Q.^.L.r.r.w.;.:.@.M N A D G ",
"! Y ) Y ! ^ ! ^ _ ^ ` R.>X>X:X<X>X<X<X:X;X).W.^.Y.L.L.r.:.-.-.-.F d h A D D ",
"T Y ) ! ! ^ ^ ^ +.` u.).#X>X>X:X:X,X,X;X).).^.U.P.L.t.r.;.@.@.G d e d M A D ",
") E ) | _ ^ ^ ! ' u.T.Q.#X;X;X,X<X,X;X).Q.~.W.Y.P.L.r.r.:.F N s 6 6 s d Z D ",
") ! E _ _ E ! ) u.^.T.Q.).[.;X,X,X{.~.Q.Q.^.Q.Y.L.r.>.=.N d e < < 4 p s Z A ",
"T T E T T z n *.t.Y.Y.Q.~.[.~.~.~.!.^.P.L.L.L.r.>.-.D d e e 4 4 < 1 6 f Z Z ",
"m R T I R n #.t.t.L.Y.^.~.!.!.!.^.P.r.r.>.;.:.@.D c e 6 e e 4 6 6 1 4 f c N "
};
