/* XPM */
static char *_8808a0c587c4491b9f1767bfdc0ba30A99iPAMF5giqbw7L[] = {
/* columns rows colors chars-per-pixel */
"50 50 124 2 ",
"   c #322E2F",
".  c #332F30",
"X  c #373333",
"o  c #3A3634",
"O  c #3C3837",
"+  c #3E3B38",
"@  c #423E3B",
"#  c #46433E",
"$  c #48443F",
"%  c #4A4741",
"&  c #4D4942",
"*  c #524D45",
"=  c #534F48",
"-  c #535147",
";  c #56544A",
":  c #59574B",
">  c #5D5A4E",
",  c #5F5C50",
"<  c #605D4F",
"1  c #625E51",
"2  c #666153",
"3  c #6B6555",
"4  c #6F6857",
"5  c #686758",
"6  c #6F6958",
"7  c #706857",
"8  c #736C5A",
"9  c #726C5A",
"0  c #736C59",
"q  c #746C5A",
"w  c #746D5A",
"e  c #756D5A",
"r  c #746D5B",
"t  c #756E5B",
"y  c #766E5B",
"u  c #766F5B",
"i  c #756E5C",
"p  c #766F5D",
"a  c #726B59",
"s  c #72705F",
"d  c #76705D",
"f  c #77705D",
"g  c #77715E",
"h  c #77725E",
"j  c #747260",
"k  c #757261",
"l  c #757361",
"z  c #767362",
"x  c #767462",
"c  c #777462",
"v  c #777563",
"b  c #757362",
"n  c #787361",
"m  c #787563",
"M  c #787663",
"N  c #7B7662",
"B  c #797764",
"V  c #7A7764",
"C  c #7B7865",
"Z  c #7B7966",
"A  c #7D7864",
"S  c #7C7865",
"D  c #7E7965",
"F  c #7D7966",
"G  c #7C7A66",
"H  c #7D7A66",
"J  c #7C7A67",
"K  c #7E7A66",
"L  c #7F7B67",
"P  c #7B7966",
"I  c #807B67",
"U  c #807C67",
"Y  c #807C68",
"T  c #817C68",
"R  c #817D68",
"E  c #817D69",
"W  c #827D68",
"Q  c #827D69",
"!  c #827E69",
"~  c #837E69",
"^  c #827F6A",
"/  c #837F6A",
"(  c #847F6A",
")  c #82806B",
"_  c #84806A",
"`  c #85816B",
"'  c #84826C",
"]  c #84826D",
"[  c #87846F",
"{  c #87856F",
"}  c #88866F",
"|  c #878570",
" . c #888670",
".. c #888770",
"X. c #888771",
"o. c #898771",
"O. c #8A8771",
"+. c #898871",
"@. c #8A8871",
"#. c #8A8872",
"$. c #8B8872",
"%. c #8A8972",
"&. c #8B8972",
"*. c #8B8973",
"=. c #8C8972",
"-. c #8C8A73",
";. c #8C8B74",
":. c #8D8B74",
">. c #8D8C74",
",. c #8E8C74",
"<. c #8E8C75",
"1. c #8E8D75",
"2. c #8F8D75",
"3. c #8F8D76",
"4. c #8F8E76",
"5. c #8F8C75",
"6. c #908E76",
"7. c #908E77",
"8. c #918F77",
"9. c #929078",
"0. c #939279",
"q. c #94937A",
"w. c #96947A",
"e. c #96947A",
/* pixels */
"&.:.6.2.2.2.2.:.0.-   X 2 w.:.2.2.2.2.2.2.-.q.: X o.R 7 -.6.:.2.2.:.6.{ X * h o.2.2.2.2.2.2.2.w.,   ",
":.) l L R R R U ( 1 & X : Z L R R R R R R I _ 2 * &.L 2 l B R N N R Z s * < r L R R N x x x l Z - X ",
"6.l - 3 7 4 7 7 3 r a o $ > 3 7 4 7 7 7 7 7 4 a h :.x ; ; > a > : a > : r r a 7 4 7 > ; ; ; ; : # X ",
"2.x ; 6 0 a a a a a 3 - 1 a a a a a a a a a a a a i 0 4 4 a a 6 6 a a 4 a a a a a 0 a 6 a 1 : > $ X ",
"2.B > a a a a a a a 6 > 2 r a a a a a a a a a a a a a a a a a a a a a a a a a a 4 3 3 3 0 2 > > $ X ",
"2.R 7 a a a a a a a 6 : 2 r a a a a a a a a a a a a a a a a a a a a a a a a a r 3 : : > a 0 4 > $ X ",
"h i a a a a a a a a a 3 2 > a a a a a a a a a a a a a a a a a a a a a a a a a 1 > > : < a a 4 > $ X ",
"h r a a a a a a a a a r 2 > a a a a a a a a a a a a a a a a a a a a a a a a a > > > > 2 a 4 3 > $ X ",
"2.R 4 a a a a a a a a a a a a a a a a a a a a a a a a a a a a a a a a a a a a > : : 3 a a 1 : > $ X ",
"2.R 7 a a a a a a a a a a a a a a a a a a a a a a a a a a a a a a a a a a a a 3 3 3 a a a 1 : > $ X ",
"2.U 3 a a a a a a a a a a a a a a a a a a a a a a a a a a a a a a a a a a a a 0 0 0 a a a 1 : > $ X ",
"2.x ; 4 a a a a a a a a a a a a a a a a a a a a a a a a a a a a a a a a a a a a a a a a r 1 : > $ X ",
"2.L 1 a a a a a a a a a a a a a a a a a a a a a a a a a a a a a a a a a a a a a a a a 4 2 > : > $ X ",
":.R a a a a a a a a a a a a a a a a a a a a a a a a a a a a a a a a a a a a a a a a 0 3 : > > > $ X ",
"0 a a a a a a a a a a a a a a a a a a a a a a a a a a a a a a a a a a a a a a a a a 0 3 : : : > $ X ",
"N h a a a a a a a a a a a a a a a a a a a a a a a a a a a a a a a a a a a a a a a a a 4 1 2 1 > $ X ",
"6.R 4 a a a a a a a a a a a a a a a a a a a a a a a a a a a a a a a a a a a a a a a a a 0 r 4 > $ X ",
":.R 7 a a r 2 > > 3 a a a a a a a a a a a a a a a 0 3 > 4 a a a a a a a a a 0 0 a a a a a 2 > > $ X ",
"2.R 4 a 6 3 > : : 2 0 a a a 3 3 3 a a a a a a a a 0 2 ; 4 a a a a a a a a 4 3 3 4 a a a a 1 : > $ X ",
"2.R 7 0 3 : > > > 3 0 a 0 a > : : 4 r a a a 0 0 a r 3 > a r a a a a a a r 2 : : 1 0 a a r 1 : , $ X ",
"2.B > a 3 : > > : 3 a 1 1 1 > > > > 2 0 a a 1 1 1 2 - @ > 1 1 4 0 0 2 1 1 > > : 2 r 0 4 1 > ; # + o ",
"2.l - 3 2 : > > : 2 3 : : : > > > : > 4 4 3 : : : ; $ X - > ; 2 4 4 < ; : : > : 1 4 4 2 : : * X o o ",
"w.Z > > > > > > > > > > > > > > > > > > > > > > > O o o : > > > > > > > > > > > > > > > 1 # X o o o ",
", = # # # $ # # # # # # # # $ $ # # # # # # # $ $ o X o # $ $ # # # # # # # # # # # # # $ O X X o o ",
"o o O O O o O O O O O O O O o o O O O O O O O o o + + + O O o O O O O O O O O O O O O O O + + + O o ",
"{ o.&.&.R 3 R &.o.o.o.&.&.o.: 5 -.o.o.o.o.| 2.: X ] &.| &.R 3 R &.o.o.o.o.o.&.o.o.o.&.&.&.&.o.6.> . ",
"2.] l R L a L R R R R N N x 2 6 _ R R R R R _ 2 * L R R R L a L R R R R R L x R R R B x N x x L - X ",
"2.l - 3 7 a 7 4 4 7 3 ; ; ; a a 3 4 4 4 4 4 3 0 r 7 4 4 4 7 a 7 4 4 4 4 7 1 ; 3 7 7 > ; ; ; ; : # X ",
"2.x ; 6 0 a a a a a a 4 4 4 a a a a a a a a a a a a a a a a a a a a a a a a 4 a a a 6 4 a 1 : > $ X ",
"2.B > a a a a a a a a a a a a a a a a a a a a a a a a a a a a a a a a a a a a a a a a a 0 2 > > $ X ",
":.R 7 a a a a a a a a a a a a a a a a a a a a a a a a a a a a a a a a a a a a a a a a a a 0 4 > $ X ",
"2.R 4 a a a a a a a a a a a a a a a a a a a a a a a a a a a a a a a a a a a a a a a a a a a 3 > $ X ",
"} L 7 a a a a a a a a a a a a a a a a a a a a a a a a a a a a a a a a a a a a a a a a a a a 3 > $ X ",
"4 7 a a a a a a a a a a a a a a a a a a a a a a a a a a a a a a a a a a a a a a a a a a a a 3 > $ X ",
"R N a a a a a a a a a a a a a a a a a a a a a a a a a a a a a a a a a a a a a a a a a a a a 4 > $ X ",
"6.R 3 a a a a a a a a a a a a a a a a a a a a a a a a a a a a a a a a a a a a a a a a a a a 3 > $ X ",
"2.l ; 4 a a a a a a a a a a a a a a a a a a a a a a a a a a a a a a a a a a a a a a a a r 1 : > $ X ",
"2.L 1 a a a a a a a a a a a a a a a a a a a a a a a a a a a a a a a a a a a a a a a a 4 2 > : > $ X ",
"&.U a a a a a a a a a a a a a a a a a a a a a a a a a a a a a a a a a a a a a a a a 0 3 : > > > $ X ",
"1 3 a a a a a a a a a a a a a a a a a a a 4 > 2 0 a a a a a a a a a a a a a 0 0 a a 0 3 : : : > $ X ",
"% > r a a a a a a a a a a a a a a a a a a 4 : 2 0 a a a a a a a a a a a a 3 2 2 3 a a 4 1 2 1 > $ X ",
"  & r a a a a a a a a a a a a a a a a a a 4 : 2 0 a a a a a a a a a a a 0 2 : : 1 r a a 0 r 4 > $ X ",
"L n a a a a a a a a a a a a a a a a a a 0 a 3 2 1 a a a a a a a 4 , 3 a 0 2 : > > > 3 a a 0 4 > $ X ",
"0.R 2 a a a a a a a a a a a a a a a a 3 3 3 r > * a a 3 a a a 0 3 & 2 0 a 3 > > > : 3 a a 4 2 > $ X ",
"2.l ; a r a a a a a a a a a a a a r 3 : : > i * X 7 2 ; 4 r a r 2 X : i a 0 a > : : 3 a r 1 : > $ X ",
"2.x ; 1 1 1 4 0 0 2 1 a a a 0 3 1 1 1 > > > 2 % o 7 a 3 1 1 1 a 2 X * 2 1 3 0 3 3 3 a 4 1 > > > $ X ",
"2.l ; > : : 2 4 4 < : 3 3 3 4 2 ; : : > ; - ; # o 3 4 4 > : ; 3 1 O & ; ; 1 4 4 4 4 4 2 : > : : # X ",
"w.Z : > > > > > > > > > > > > > > > > , # X o o O > > > > > > > > , # o > > > > > > > > > > : o o o ",
", - # $ $ $ $ $ $ $ $ $ $ $ $ $ $ $ $ $ + o o o o # $ $ $ $ $ $ $ % + o $ $ $ $ $ $ $ $ $ $ # o o o ",
". X X X X X X X X X X X X X X X X X X X o o o o o X X X X X X X X X o o X X X X X X X X X X X o o o "
};
