/* XPM */
static char *e520b2e267a54ffee183b39e985fa3e3gHSc4lJ8kokKm5ZK[] = {
/* columns rows colors chars-per-pixel */
"50 50 114 2 ",
"   c #020101",
".  c #0A0302",
"X  c #080807",
"o  c #0A0A09",
"O  c #190605",
"+  c #130E0D",
"@  c #11100D",
"#  c #171713",
"$  c #1A1413",
"%  c #1B1A16",
"&  c #1E1E19",
"*  c #250907",
"=  c #201715",
"-  c #261B17",
";  c #211F1B",
":  c #2A1F1D",
">  c #24221C",
",  c #021420",
"<  c #041929",
"1  c #112433",
"2  c #262321",
"3  c #282623",
"4  c #2B2922",
"5  c #332520",
"6  c #3A2822",
"7  c #322F28",
"8  c #3C2C28",
"9  c #34322B",
"0  c #39362D",
"q  c #3B382F",
"w  c #393535",
"e  c #3E3B33",
"r  c #3E3A38",
"t  c #41120E",
"y  c #551712",
"u  c #681C17",
"i  c #79211A",
"p  c #4A352C",
"a  c #413735",
"s  c #403C32",
"d  c #413E3A",
"f  c #533B32",
"g  c #583E34",
"h  c #7B3F3C",
"j  c #454136",
"k  c #45423D",
"l  c #484438",
"z  c #5F4339",
"x  c #514C3F",
"c  c #66483D",
"v  c #0B3555",
"b  c #1F486A",
"n  c #0E4672",
"m  c #4A4641",
"M  c #4D4942",
"N  c #514244",
"B  c #534E44",
"V  c #545046",
"C  c #595446",
"Z  c #56554A",
"A  c #59564B",
"S  c #5C594D",
"D  c #5F5C50",
"F  c #6D4D41",
"G  c #614E4F",
"H  c #605A4B",
"J  c #755245",
"K  c #785548",
"L  c #665453",
"P  c #625E51",
"I  c #6F5A5C",
"U  c #656153",
"Y  c #6B6554",
"T  c #6F6857",
"R  c #6F6A59",
"E  c #706957",
"W  c #726B59",
"Q  c #72705F",
"!  c #78705C",
"~  c #786163",
"^  c #757362",
"/  c #797764",
"(  c #7C7A67",
")  c #7E7D69",
"_  c #8A251E",
"`  c #962921",
"'  c #9F2B23",
"]  c #B53128",
"[  c #CC382D",
"{  c #DB3C30",
"}  c #E23E32",
"|  c #EF4135",
" . c #F54336",
".. c #F94437",
"X. c #82696B",
"o. c #807E6A",
"O. c #8F7376",
"+. c #D36863",
"@. c #84826D",
"#. c #89866F",
"$. c #898670",
"%. c #125991",
"&. c #275883",
"*. c #9D7F82",
"=. c #B39093",
"-. c #C09A9E",
";. c #FA8783",
":. c #C69FA3",
">. c #D3AAAE",
",. c #E4B8BD",
"<. c #F4C4C9",
"1. c #FFCDD2",
"2. c #FFD0D5",
"3. c #FFD3D9",
/* pixels */
"$.o.) ) @.@.( k k Q o.) o.) @.U m &                             @ k Q o.) o.) @.U m / ) ( o.Y U @.m ",
") A S U W W U U U U S A A Z e 0 0 o + 5 - - 5 5 5 = = = 5 5 5 o o 0 V S A A A P U U P U U S A S S d ",
") S W W W W W W W W Y Y U A @       - K g f J K J f p p F K K -     s U Y Y Y W W W W P T T U S S d ",
"( U W W W W W W W W W W j @ o + 6 6 p K g p p f f F z p p z K c p   o > T W W W W W W S A T W S S d ",
"V W W W W W W W W W T x >   = 6 g p f c f p g p p J F g p f c J c : + o j S W W W W W T P Y W Y S d ",
"U W W W W W W W W W H o   o c K J f p p p f J z p J K J f p p F K K 5     0 W W W W W W W W W Y S d ",
"#.W W W W W W W W W H o : g f f g c F F f f K z p f g g c z p f z K c p   @ 4 U W W W W W U P E P d ",
"( U W W W W W W W W H o 8 K g p p c J K z g F z f f p p F F f p p F J F - o X H W W W W W P A S S d ",
") U W W W W W W W W H o 6 K K c p p g K K F p c K K z p F K J f p p c K J 6 o H W W W W W Y S A S d ",
") S T W W W W W W W H o : z J J c p p z F K c z g g z c z c K F z p f z K 8 o H W W W W W W Y Y P d ",
"o.A Y W W W W W W W H o - f F F c p 6 8 g c c g p p z K p f J K F f p p F 6 o H W W W W W T W ! U d ",
") A Y W W W W W W W S o 6 J f 5 o       . . o p K J K K f p p F K J g p p - o H W W W W W U P U Y d ",
") A Y W W W W W W W H o 8 K f :   G X.X.G 8   = p J z 6 - 6 z z c K F z z 5 o H W W W W W W P B M r ",
"@.S T W W W E T W W S o 6 F f : o :.3.2.:.X.$   o z p o   - F f g K J J K 8 o H W W W W W W W U V r ",
"R B S W W P M m P P V X . $ c p o -.2.1.<.>.X.8   o p ~ $   + g J K z f K 8 o H W W W W T W W W Y d ",
"V k k C B d M P W W U 7 #   8 : o -.2.1.1.<.:.O.G G O.-.N :   5 g K c g p - o H W W W U A Y W W U d ",
"@.P T M B T k Y W W W W 0       + :.2.1.<.<.1.1.1.1.1.<.=.G     $ F K c o   o H W W T A P W W W U d ",
"^ U W W W W S T W W W W 0 o G O.:.<.1.1.~ G <.1.1.1.1.<.N 8 I =   $ g c o 4 C T W W W T W W W W U d ",
"A W W W W W U Y W W W W 0 o G =.2.1.1.1.N : <.1.1.1.1.<.5 8 =.N =   5 p . 0 W W W W W W W W T W U d ",
"@.W W W W W E P W W W W 0     G 1.1.1.1.N 5 <.1.1.1.1.<.5 N <.=.I         0 W W W W W W W W S S P d ",
") Y W W W W W T W W W W H j o f -.<.2.1.:.=.1.1.1.1.1.<.=.:.1.,.-.I : o j H W W W W W W W W S A S d ",
") P W W W W W W W W W W W U @ 5 X.>.<.1.2.2.1.1.1.1.1.2.2.2.1.2.,.X.5 @ U W W W W W W W W W T S S d ",
") A U W W W W W W W W W W U @   + ~ -.1.2.2.1.1.1.1.1.1.2.2.2.3.:.+   @ U W W W W W W W W W T S S d ",
"o.S S T W W W W W W W W W T l e e a N I I O.<.1.1.1.2.<.O.I I I L e e l T W W W W W W W W W T S S d ",
"Z S S T W W W W W W W W W W U U H #   O   : >.<.1.1.<.>.:   O   # H U U W W W W W W W W W W P S S d ",
"/ A Y W W W W W W W W W W T % o o o t [ t   $ *.3.3.*.$   t [ t o o o % T W W W W W W W W W S S S d ",
"o.A Y W W W W W W W W W C 0 X O t u ` | ' y   N O.O.N   y ' | ` u t O X 0 C W W W W W W W W S S S d ",
") S W W W W W W W W W W 0     t ' } .. ...[ O . .     O [ .. ...} ' t     0 W W W W W P Y W U S S d ",
"( U W W W W W W W W W W 0 . u ' } |  . . .| [ [ ] O y [ |  . . .| } ' u . 0 W W W W W S A T W S S d ",
"V W W W W W W W W W T B > . ` [  . . . . . .....{ O u .. . . . . . .[ ` . > B T W W W T P T W Y S d ",
"U W W W W W W W W W H o   O [  . .| |  .| | |  .{ O u  . . . .| |  . .[ O   o H W W W W W W W Y S d ",
"#.W W W W W W W W W H o y ] | ..| u i | i t t ' { O u  . . .| i u | ..| ] y o H W W W W W U P E P d ",
"( U W W W W W W W W H o i .. .{ ] * t | u O O ` { O u  . . .| t * ] {  ...i o H W W W W W P A S S d ",
") U W W W W W W W W H o i ....` .   t | ] _ _ [ { O u  . . .| t   . ` ....i o H W W W W W Y S A S d ",
") S T W W W W W W W H o i ....`   u ] | { [ [ } { O u  . . . .] u   ` ....i o H W W W W W W Y Y P d ",
"o.A Y W W W W W W W H o i ....` . ] .. . . . ...{ O u  . . . ...] . ` ....i o H W W W W W T W ! U d ",
") A Y W W W W W W W H o i  ...` . ] .. . . . . .{ O u  . . . ...] . ` .. .i o H W W W W W U P U Y d ",
") A Y W W W W W W W H o h ;.+.h . ` {  . . . . .} _ ] .. . . .{ ` . h +.;.h o H W W W W W W P B M r ",
"o.A Y W W W W W W W H o ~ ,.*.N   u ' { { { { { } } } { { { { ' u   N *.,.~ o H W W W W W W W U V r ",
") S Y W W W W W W W H X + : $ o   . O * * * * * * * * * * * * O .   o $ : + X H W W W W T W W W Y d ",
") P W W W W W W W W U 9 4 4 4 4 4 o o 1 < , , , , , , , , < 1 o o 4 4 4 4 4 9 U W W W U A Y W W U d ",
") P W W W W W W W W W W W W W W T % < %.n v v v v v v v v n %.< % T W W W W W W W W W A P W W W U d ",
"^ U W W W W W W W W W W W W W W T % < %.%.n , o o o o , n %.%.< % T W W W W W W W T T T W W W W U d ",
"A W W W W W W W W T Y Y T W W W T % < %.%.n   o % & @   n %.%.< % E T T W W W W Y S S T W W T W U d ",
"@.W W W W W W W T S S A U W W W T % < %.%.n   e U W e   n %.%.< # H U T W W W W Y A A S W W S S P d ",
") Y W W W W W W U A S S T W W x > X < %.%.n   q P U e   n %.%.< X ; x W W W W W T Y S H W W S A S d ",
") P W W W W W W Y S Y W W W Y 0   + 1 &.&.b   9 A S e   b &.&.1 +   j W W W W Y S Y T T W W T S S d ",
") A U T W W W A W W W W Y S S 0   g J K K z   9 S S 0   z K K J g   j W W Y S S S A T W T Y U S S d ",
"o.S S S U U B d U U U P A S S 0   - 5 5 5 :   9 S S 9   : 5 5 5 -   e U P A S S S S P U D A S S S d ",
"m d d d d d w w d d d d d d d 3               2 d d 2               3 d d d d d d d d d d d d d d r "
};
